<svg xmlns="http://www.w3.org/2000/svg" version="1.1" xmlns:xlink="http://www.w3.org/1999/xlink" xmlns:svgjs="http://svgjs.dev/svgjs" width="1000" height="1125" viewBox="0 0 1000 1125"><g transform="matrix(1,0,0,1,1.7053025658242404e-13,0)"><svg viewBox="0 0 320 360" data-background-color="#ffffff" preserveAspectRatio="xMidYMid meet" height="1125" width="1000" xmlns="http://www.w3.org/2000/svg" xmlns:xlink="http://www.w3.org/1999/xlink"><g id="tight-bounds" transform="matrix(1,0,0,1,0,0)"><svg viewBox="0 0 320 360" height="360" width="320"><g><svg></svg></g><g><svg viewBox="0 0 320 360" height="360" width="320"><g><path xmlns="http://www.w3.org/2000/svg" d="M20.961 227.22l3.726 4.658-1.863-6.056c-0.466-2.795-3.726 0.466-1.863 1.398M25.153 224.425c1.397 2.329 2.795 4.658 2.795 6.987 0 3.261 2.795 4.658 5.123 5.589-3.261-3.726-5.124-13.974-7.918-12.576M204.017 26.929c7.918 0 15.371-0.932 23.756 0.931 20.495 5.124 37.729 15.371 49.374 29.811l32.606 52.169c1.397 13.042 4.192 27.482 3.726 43.319 3.261 0 2.795-4.658 6.521-5.59-3.726 9.316-5.59 20.961-6.521 34.469-2.329-7.453 0-18.632 0.466-24.687-3.261 5.124-5.124 1.397-5.124-0.932 0.466-3.726-1.397-3.261-2.795-4.658-5.124-4.658-8.384-9.782-12.11-17.7 2.329-6.055 2.795-14.905-4.658-19.563-2.329-1.397-5.124-3.726-6.521-7.453-1.863-5.124-5.124-11.179-4.193-19.097 0.466-2.329-6.987 5.124-11.179 1.863-18.166-12.576-36.332-27.016-58.224-39.127-11.645 0-20.029-4.192-24.221-9.316-3.726-4.658-0.932-10.713 4.658-11.179 3.261 0 6.987-0.932 9.782 0.932 0.466-1.863 2.329-4.192 4.657-4.192M157.904 16.215l0.932 0.466c4.658 0.932 6.987 7.453 12.11 5.124 0 3.261 0.466 6.521-0.466 8.85-1.397 3.726-5.59 3.726-8.85 3.726-31.208-1.863-49.374 11.179-68.471 22.358-5.124 3.261-10.713 5.59-14.906 9.782-20.029 18.632-41.921 35.866-47.045 70.335l-4.192 38.195c-0.466 4.192-5.124 8.384-4.192 13.508l3.26 22.824c-3.261-3.261-5.124 0.932-4.192 2.795 0.466 1.397 2.329 6.055 5.124 1.863 3.726 6.987 7.453 20.495 12.576 26.55 15.837 18.632 36.332 35.4 53.101 52.169 4.192-0.932 7.453-0.932 8.384-3.727 1.397 2.795-1.397 5.59-3.726 6.056 7.453 4.658 15.837 8.85 27.016 9.781 14.44 0.932 27.948 3.261 40.524 6.522 6.521-1.863 13.042-2.795 20.029-3.261 2.329 0 3.726-3.726 6.521-4.658l0.466-4.658c2.795 4.192 2.329-1.397 0.466-4.192 3.261 2.795 4.192 5.124 5.589 6.987 0-1.397 3.726-6.521 3.727-0.466l0.931-6.055c1.397-0.932 1.863 5.124 3.261 0.931 1.397-4.192 4.192-0.932 6.987-2.329-0.932 1.863-0.466 5.59 2.794 3.261l3.727-3.261c2.329 5.59 6.055 3.261 7.918 2.329 20.495-13.042 40.99-28.413 60.553-43.784l-0.466 6.055 2.329-7.453c2.329 2.329 4.192 0.466 5.124-0.931 2.795-4.658 6.521-9.316 12.577-13.508-7.453 20.029-16.303 35.866-27.482 48.908l-4.658 5.59c0 3.261-0.932 7.453-4.658 7.918-1.863 0.466-5.59-0.932-8.384 1.863-1.397 1.863 3.261 5.59-0.466 2.795-3.261-2.329-6.521 0-10.248 0.932-2.795 0.932 1.863 3.726 2.795 5.589 0.932 1.863 1.863 3.726 1.398 6.056l-5.124-5.59c-6.055 3.261-9.782 9.316-14.906 13.974-2.329 1.863-1.397 5.124-1.397 7.918-3.261 0-6.987-0.932-8.85 0.932-1.397 1.863-0.932 4.658-0.932 7.453-4.658-0.466-5.124-7.453-9.315-6.056-4.192 0.932-8.85 1.397-12.577 3.727 2.795 5.59-4.658 2.329-3.726 3.26-6.987-4.192-13.042-7.453-20.495-4.658-15.837-5.124-35.4-2.795-49.84-0.931 0-2.329 0.466-4.658-0.466-5.124-0.932 2.329-3.726 1.397-3.26 1.397-8.85-6.055-17.7-9.782-27.016-14.905-8.384 0.932-16.303-3.261-18.632-5.59-6.521-6.055-13.974-2.795-20.029-4.192-13.042-3.261-17.7-16.769-19.098-26.084-0.932-4.658-4.658-6.521-6.055-6.056-6.055-19.563-15.371-37.263-22.824-55.429-1.863-4.658-1.397-9.316-1.397-14.44 2.329 0.932 4.658 0.466 4.192-2.794-2.329-15.371-7.918-27.016-13.974-38.195 3.261-15.837 3.726-34.469 11.179-48.443 6.521-12.576 18.632-19.098 27.016-29.811 2.795-3.726 2.795-8.85 5.59-12.11 9.316-9.316 18.632-19.098 28.879-27.482 4.658-3.726 10.247 0 17.234-1.397 2.329-8.384 11.645-15.837 20.495-13.508 3.726 0.932 11.179-8.85 13.508-9.782 3.726-1.397 1.863 3.726 1.863 6.987 8.85-6.987 20.961-10.713 32.14-14.906" fill="#e93f35" fill-rule="nonzero" stroke="none" stroke-width="1" stroke-linecap="butt" stroke-linejoin="miter" stroke-miterlimit="10" stroke-dasharray="" stroke-dashoffset="0" font-family="none" font-weight="none" font-size="none" text-anchor="none" style="mix-blend-mode: normal" data-fill-palette-color="tertiary"></path></g><g transform="matrix(1,0,0,1,64,126.79661625467674)"><svg viewBox="0 0 192 106.40676749064653" height="106.40676749064653" width="192"><g><svg viewBox="0 0 192 106.40676749064653" height="106.40676749064653" width="192"><g><svg viewBox="0 0 192 106.40676749064653" height="106.40676749064653" width="192"><g transform="matrix(1,0,0,1,0,64.31421744141778)"><svg viewBox="0 0 192 42.09255004922875" height="42.09255004922875" width="192"><g id="textblocktransform"><svg viewBox="0 0 192 42.09255004922875" height="42.09255004922875" width="192" id="textblock"><g><svg viewBox="0 0 192 42.09255004922875" height="42.09255004922875" width="192"><g transform="matrix(1,0,0,1,0,0)"><svg width="192" viewBox="1.2699999809265137 -32.31999969482422 148.76998901367188 32.61000061035156" height="42.09255004922875" data-palette-color="#da160f"><path d="M14.06-29.79L14.06-29.79Q12.01-29.79 11.23-29.44L11.23-29.44Q10.69-29.2 10.64-24.37L10.64-24.37 10.64-18.75Q10.64-17.68 11.47-17.33 12.3-16.99 13.77-16.99L13.77-16.99 15.04-16.99Q16.85-16.99 18.29-18.7 19.73-20.41 19.73-23.14L19.73-23.14Q19.73-29.79 14.06-29.79ZM14.84-32.23L14.84-32.23Q16.11-32.23 17.5-31.96 18.9-31.69 20.39-31.05 21.88-30.42 23.05-29.49 24.22-28.56 24.95-27.05 25.68-25.54 25.68-23.63L25.68-23.63Q25.68-21 23.97-18.65 22.27-16.31 19.82-15.33L19.82-15.33Q19.43-15.19 19.63-14.84L19.63-14.84Q22.36-9.91 25.1-6.54L25.1-6.54Q26.81-4.44 28.78-2.95 30.76-1.46 32.42-1.46L32.42-1.46Q32.62-1.17 32.62-0.68L32.62-0.68Q32.62-0.2 32.42 0.2L32.42 0.2Q31.84 0.29 30.91 0.29L30.91 0.29Q28.42 0.29 26.39-0.29 24.37-0.88 22.88-2.03 21.39-3.17 20.41-4.25 19.43-5.32 18.36-6.98L18.36-6.98Q17.68-7.96 16.8-9.28 15.92-10.6 15.45-11.3 14.99-12.01 14.4-12.79 13.82-13.57 13.4-13.96 12.99-14.36 12.6-14.5L12.6-14.5Q12.3-14.65 11.43-14.65L11.43-14.65Q10.64-14.65 10.64-13.82L10.64-13.82 10.64-6.93Q10.64-4 11.04-2.78L11.04-2.78Q11.18-2.2 12.67-1.83 14.16-1.46 14.84-1.46L14.84-1.46Q15.04-1.46 15.04-0.63L15.04-0.63Q15.04-0.1 14.94 0.2L14.94 0.2Q9.57-0.1 8.01-0.1L8.01-0.1Q6.69-0.1 5.05-0.02 3.42 0.05 2.44 0.1L2.44 0.1 1.46 0.2Q1.32 0 1.32-0.68L1.32-0.68Q1.32-1.46 1.46-1.46L1.46-1.46Q2.1-1.46 3.34-1.78 4.59-2.1 4.79-2.54L4.79-2.54Q5.08-3.42 5.08-6.98L5.08-6.98 5.08-25.44Q5.08-28.22 4.79-29.44L4.79-29.44Q4.64-29.83 3.34-30.25 2.05-30.66 1.46-30.66L1.46-30.66Q1.27-30.66 1.27-31.4L1.27-31.4Q1.27-32.13 1.46-32.28L1.46-32.28Q6.64-32.13 7.96-32.13L7.96-32.13Q9.33-32.13 11.35-32.18 13.38-32.23 14.84-32.23ZM41.4-32.13L41.4-32.13Q42.82-32.13 44.68-32.2 46.53-32.28 48-32.28L48-32.28Q49.46-32.28 50.9-32.01 52.34-31.74 53.78-31.05 55.22-30.37 56.32-29.37 57.42-28.37 58.13-26.81 58.84-25.24 58.84-23.34L58.84-23.34Q58.84-21.04 57.64-18.85 56.44-16.65 54.03-15.11 51.61-13.57 48.58-13.57L48.58-13.57Q47.56-13.57 46.53-13.94 45.51-14.31 45.11-14.84L45.11-14.84Q45.02-14.94 44.94-15.33 44.87-15.72 44.92-16.06 44.97-16.41 45.07-16.41L45.07-16.41Q46.19-15.92 47.8-15.92L47.8-15.92Q50.14-15.92 51.51-17.85 52.88-19.78 52.88-22.71L52.88-22.71Q52.88-25.98 51.56-27.88 50.24-29.79 47.51-29.79L47.51-29.79Q45.46-29.79 44.68-29.44L44.68-29.44Q44.09-29.15 44.09-24.37L44.09-24.37 44.09-6.93Q44.09-4 44.48-2.78L44.48-2.78Q44.63-2.2 46.12-1.83 47.6-1.46 48.29-1.46L48.29-1.46Q48.48-1.46 48.48-0.63L48.48-0.63Q48.48-0.1 48.39 0.2L48.39 0.2Q43.02-0.1 41.45-0.1L41.45-0.1Q40.13-0.1 38.5-0.02 36.86 0.05 35.89 0.1L35.89 0.1 34.91 0.2Q34.76 0 34.76-0.68L34.76-0.68Q34.76-1.46 34.91-1.46L34.91-1.46Q35.54-1.46 36.79-1.78 38.03-2.1 38.23-2.54L38.23-2.54Q38.52-3.42 38.52-6.98L38.52-6.98 38.52-25.44Q38.52-28.22 38.23-29.44L38.23-29.44Q38.08-29.83 36.79-30.25 35.5-30.66 34.91-30.66L34.91-30.66Q34.71-30.66 34.71-31.4L34.71-31.4Q34.71-32.13 34.91-32.28L34.91-32.28Q40.04-32.13 41.4-32.13ZM80.17-32.03L80.17-32.03Q81.44-32.03 86.81-32.32L86.81-32.32Q86.86-32.13 86.86-31.42 86.86-30.71 86.71-30.71L86.71-30.71Q85.88-30.71 84.9-30.4 83.93-30.08 83.93-29.39L83.93-29.39Q83.93-28.91 84.42-28.13L84.42-28.13 89.93-19.78Q90.37-20.36 91.55-21.83 92.72-23.29 93.43-24.19 94.13-25.1 94.96-26.22 95.79-27.34 96.23-28.1 96.67-28.86 96.67-29.2L96.67-29.2Q96.67-29.74 95.57-30.22 94.47-30.71 93.16-30.71L93.16-30.71Q92.96-30.71 92.94-31.42 92.91-32.13 93.11-32.32L93.11-32.32Q98.09-32.03 99.21-32.03L99.21-32.03Q99.85-32.03 105.22-32.32L105.22-32.32Q105.31-32.13 105.31-31.42 105.31-30.71 105.17-30.71L105.17-30.71Q104.44-30.71 102.85-30.3 101.26-29.88 100.63-29.05L100.63-29.05 91.45-17.43Q100.58-3.76 100.77-3.47L100.77-3.47Q101.56-2.44 102.9-1.95 104.24-1.46 105.27-1.46L105.27-1.46Q105.46-1.46 105.46-0.49L105.46-0.49Q105.46-0.1 105.36 0.2L105.36 0.2Q99.99-0.1 99.21-0.1L99.21-0.1Q97.99-0.1 96.82-0.05 95.65 0 94.18 0.07 92.72 0.15 91.79 0.2L91.79 0.2Q91.59 0 91.62-0.73 91.64-1.46 91.84-1.46L91.84-1.46Q92.47-1.46 93.55-1.83 94.62-2.2 94.62-2.83L94.62-2.83Q94.62-3.08 94.43-3.37L94.43-3.37 87.59-13.77Q80.17-3.86 80.17-2.93L80.17-2.93Q80.17-2.39 81.17-1.93 82.17-1.46 83.64-1.46L83.64-1.46Q83.88-1.46 83.88-0.54L83.88-0.54Q83.88 0 83.78 0.2L83.78 0.2Q79.05-0.1 77.78-0.1L77.78-0.1Q77.04-0.1 71.67 0.2L71.67 0.2Q71.48-0.24 71.48-0.49L71.48-0.49Q71.48-1.46 71.67-1.46L71.67-1.46Q72.36-1.46 73.85-1.83 75.33-2.2 75.97-2.93L75.97-2.93 85.93-16.26 79.24-26.46Q77.48-29.25 76.31-29.98L76.31-29.98Q75.14-30.71 73.63-30.71L73.63-30.71Q73.48-30.71 73.48-31.42 73.48-32.13 73.63-32.32L73.63-32.32Q74.5-32.28 75.75-32.2 76.99-32.13 78.04-32.08 79.09-32.03 80.17-32.03ZM122.5-21.48L122.5-21.48Q122.5-24.9 121.23-27.1 119.96-29.3 117.71-29.3L117.71-29.3Q115.81-29.3 114.71-27.56 113.61-25.83 113.61-22.56L113.61-22.56Q113.61-19.38 114.91-17.46 116.2-15.53 118.84-15.53L118.84-15.53Q119.86-15.53 120.79-16.04 121.72-16.55 121.96-17.29L121.96-17.29Q122.45-18.7 122.5-21.48ZM118.11-31.54L118.11-31.54Q122.16-31.54 125.01-28.56 127.87-25.59 127.87-21.24L127.87-21.24Q127.87-17.38 126.31-13.79 124.75-10.21 122.18-7.52 119.62-4.83 116.71-2.86 113.81-0.88 110.78 0.29L110.78 0.29Q110.39 0.24 110.1-0.34 109.8-0.93 109.8-1.27L109.8-1.27Q113.71-2.88 116.93-6.1 120.16-9.33 121.38-13.48L121.38-13.48Q121.57-14.06 121.33-14.21L121.33-14.21Q121.28-14.21 121.23-14.16L121.23-14.16Q120.74-13.77 119.5-13.4 118.25-13.04 117.23-13.04L117.23-13.04Q113.52-13.04 110.93-15.67 108.34-18.31 108.34-21.92L108.34-21.92Q108.34-25.78 111.27-28.66 114.2-31.54 118.11-31.54ZM144.67-21.48L144.67-21.48Q144.67-24.9 143.4-27.1 142.13-29.3 139.88-29.3L139.88-29.3Q137.98-29.3 136.88-27.56 135.78-25.83 135.78-22.56L135.78-22.56Q135.78-19.38 137.07-17.46 138.37-15.53 141-15.53L141-15.53Q142.03-15.53 142.96-16.04 143.88-16.55 144.13-17.29L144.13-17.29Q144.62-18.7 144.67-21.48ZM140.27-31.54L140.27-31.54Q144.32-31.54 147.18-28.56 150.04-25.59 150.04-21.24L150.04-21.24Q150.04-17.38 148.47-13.79 146.91-10.21 144.35-7.52 141.78-4.83 138.88-2.86 135.97-0.88 132.95 0.29L132.95 0.29Q132.56 0.24 132.26-0.34 131.97-0.93 131.97-1.27L131.97-1.27Q135.88-2.88 139.1-6.1 142.32-9.33 143.54-13.48L143.54-13.48Q143.74-14.06 143.49-14.21L143.49-14.21Q143.44-14.21 143.4-14.16L143.4-14.16Q142.91-13.77 141.66-13.4 140.42-13.04 139.39-13.04L139.39-13.04Q135.68-13.04 133.09-15.67 130.51-18.31 130.51-21.92L130.51-21.92Q130.51-25.78 133.43-28.66 136.36-31.54 140.27-31.54Z" opacity="1" transform="matrix(1,0,0,1,0,0)" fill="#da160f" class="wordmark-text-0" data-fill-palette-color="primary" id="text-0"></path></svg></g></svg></g></svg></g></svg></g><g transform="matrix(1,0,0,1,57.08738507395514,0)"><svg viewBox="0 0 77.82522985208972 58.17190416803413" height="58.17190416803413" width="77.82522985208972"><g><svg xmlns="http://www.w3.org/2000/svg" xmlns:xlink="http://www.w3.org/1999/xlink" version="1.1" x="0" y="0" viewBox="1.100000023841858 13.400001525878906 97.80000305175781 73.1024169921875" enable-background="new 0 0 100 100" xml:space="preserve" height="58.17190416803413" width="77.82522985208972" class="icon-icon-0" data-fill-palette-color="accent" id="icon-0"><path d="M1.1 79.9v-4.1h5.4 0.3V33.2c0-3.4 2.7-6.1 6.1-6.1h23.7c-0.5 2-0.8 4.1-0.8 6.3 0 0.7 0 1.3 0.1 2H15v40.4h21.2v0.4c0 1.3 1 2.3 2.3 2.3h11.6c1.3 0 2.3-1 2.3-2.3v-0.4h21.2V58.5H79c1 0 2-0.1 3-0.2v17.4h0.3 5.4v4.1c0 3.7-3 6.7-6.7 6.7h-6.4H14.2 7.8C4.1 86.6 1.1 83.6 1.1 79.9zM40.8 33.4c0-11 9-20 20-20h18.1c11 0 20 9 20 20 0 11-9 20-20 20H65.4l-9.2 9.2c-0.6 0.6-1.7 0.2-1.7-0.7v-9.5C46.5 49.7 40.8 42.3 40.8 33.4zM52.7 33.5c0 1.1 0.2 2.1 0.6 3.1 0.4 1 1 1.9 1.8 2.7 0.8 0.8 1.7 1.4 2.7 1.8 1 0.4 2 0.6 3.1 0.6 1.1 0 2.1-0.2 3.1-0.6 1-0.4 1.9-1 2.7-1.8l0.6-0.6-2.6-2.6-0.6 0.6c-0.9 0.9-2 1.3-3.2 1.3-1.2 0-2.3-0.5-3.2-1.3-0.9-0.9-1.3-2-1.3-3.2s0.5-2.3 1.3-3.2c0.9-0.9 2-1.3 3.2-1.3 1.2 0 2.3 0.5 3.2 1.3l3.2 3.2 5.8 5.8c0.8 0.8 1.7 1.4 2.7 1.8 1 0.4 2 0.6 3.1 0.6 1.1 0 2.1-0.2 3.1-0.6 1-0.4 1.9-1 2.7-1.8 0.8-0.8 1.4-1.7 1.8-2.7 0.4-1 0.6-2 0.6-3.1 0-1.1-0.2-2.1-0.6-3.1-0.4-1-1-1.9-1.8-2.7-0.8-0.8-1.7-1.4-2.7-1.8-1-0.4-2-0.6-3.1-0.6-1.1 0-2.1 0.2-3.1 0.6-1 0.4-1.9 1-2.7 1.8l-0.7 0.7L75 31l0.7-0.7c0.9-0.9 2-1.3 3.2-1.3 1.2 0 2.3 0.5 3.2 1.3 0.9 0.9 1.3 2 1.3 3.2s-0.5 2.3-1.3 3.2c-0.9 0.9-2 1.3-3.2 1.3-1.2 0-2.3-0.5-3.2-1.3l-1.3-1.3-7.7-7.7c-0.8-0.8-1.7-1.4-2.7-1.8-1-0.4-2-0.6-3.1-0.6-1.1 0-2.1 0.2-3.1 0.6-1 0.4-1.9 1-2.7 1.8-0.8 0.8-1.4 1.7-1.8 2.7C52.9 31.4 52.7 32.4 52.7 33.5z" fill="#29eba5" data-fill-palette-color="accent"></path></svg></g></svg></g><g></g></svg></g></svg></g></svg></g></svg></g><defs></defs></svg><rect width="320" height="360" fill="none" stroke="none" visibility="hidden"></rect></g></svg></g></svg>